HIERARCHY
ROOT hip
{
  OFFSET 0 0 0
  CHANNELS 6 Xposition Yposition Zposition Zrotation Yrotation Xrotation
  JOINT abdomen
  {
    OFFSET 0 20.6881 -0.73152
    CHANNELS 3 Zrotation Xrotation Yrotation
    JOINT chest
    {
      OFFSET 0 11.7043 -0.48768
      CHANNELS 3 Zrotation Xrotation Yrotation
      JOINT neck
      {
        OFFSET 0 22.1894 -2.19456
        CHANNELS 3 Zrotation Xrotation Yrotation
        JOINT head
        {
          OFFSET -0.24384 7.07133 1.2192
          CHANNELS 3 Zrotation Xrotation Yrotation
          JOINT leftEye
          {
            OFFSET 4.14528 8.04674 8.04672
            CHANNELS 3 Zrotation Xrotation Yrotation
            End Site
            {
              OFFSET 1 0 0
            }
          }
          JOINT rightEye
          {
            OFFSET -3.6576 8.04674 8.04672
            CHANNELS 3 Zrotation Xrotation Yrotation
            End Site
            {
              OFFSET 1 0 0
            }
          }
        }
      }
      JOINT rCollar
      {
        OFFSET -2.68224 19.2634 -4.8768
        CHANNELS 3 Zrotation Xrotation Yrotation
        JOINT rShldr
        {
          OFFSET -8.77824 -1.95073 1.46304
          CHANNELS 3 Zrotation Xrotation Yrotation
          JOINT rForeArm
          {
            OFFSET -28.1742 -1.7115 0.48768
            CHANNELS 3 Zrotation Xrotation Yrotation
            JOINT rHand
            {
              OFFSET -22.5879 0.773209 7.07136
              CHANNELS 3 Zrotation Xrotation Yrotation
              JOINT rThumb1
              {
                OFFSET -1.2192 -0.487915 3.41376
                CHANNELS 3 Zrotation Xrotation Yrotation
                JOINT rThumb2
                {
                  OFFSET -3.37035 -0.52449 3.41376
                  CHANNELS 3 Zrotation Xrotation Yrotation
                  End Site
                  {
                    OFFSET -1.78271 -1.18214 1.43049
                  }
                }
              }
              JOINT rIndex1
              {
                OFFSET -7.75947 0.938293 5.60832
                CHANNELS 3 Zrotation Xrotation Yrotation
                JOINT rIndex2
                {
                  OFFSET -2.54057 -0.884171 1.56538
                  CHANNELS 3 Zrotation Xrotation Yrotation
                  End Site
                  {
                    OFFSET -1.62519 -0.234802 1.16502
                  }
                }
              }
              JOINT rMid1
              {
                OFFSET -8.24714 1.18213 3.41376
                CHANNELS 3 Zrotation Xrotation Yrotation
                JOINT rMid2
                {
                  OFFSET -3.10165 -0.590103 1.0647
                  CHANNELS 3 Zrotation Xrotation Yrotation
                  End Site
                  {
                    OFFSET -2.48547 -0.328903 0.83742
                  }
                }
              }
              JOINT rRing1
              {
                OFFSET -8.82822 0.546677 1.51678
                CHANNELS 3 Zrotation Xrotation Yrotation
                JOINT rRing2
                {
                  OFFSET -2.60934 -0.819778 -0.0198488
                  CHANNELS 3 Zrotation Xrotation Yrotation
                  End Site
                  {
                    OFFSET -2.33842 -0.294052 0.168128
                  }
                }
              }
              JOINT rPinky1
              {
                OFFSET -8.27202 -0.0477905 -0.4584
                CHANNELS 3 Zrotation Xrotation Yrotation
                JOINT rPinky2
                {
                  OFFSET -1.82734 -0.647385 -0.700984
                  CHANNELS 3 Zrotation Xrotation Yrotation
                  End Site
                  {
                    OFFSET -1.69225 -0.51767 -0.607171
                  }
                }
              }
            }
          }
        }
      }
      JOINT lCollar
      {
        OFFSET 2.68224 19.2634 -4.8768
        CHANNELS 3 Zrotation Xrotation Yrotation
        JOINT lShldr
        {
          OFFSET 8.77824 -1.95073 1.46304
          CHANNELS 3 Zrotation Xrotation Yrotation
          JOINT lForeArm
          {
            OFFSET 28.1742 -1.7115 0.48768
            CHANNELS 3 Zrotation Xrotation Yrotation
            JOINT lHand
            {
              OFFSET 22.5879 0.773209 7.07136
              CHANNELS 3 Zrotation Xrotation Yrotation
              JOINT lThumb1
              {
                OFFSET 1.2192 -0.487915 3.41376
                CHANNELS 3 Zrotation Xrotation Yrotation
                JOINT lThumb2
                {
                  OFFSET 3.37035 -0.52449 3.41376
                  CHANNELS 3 Zrotation Xrotation Yrotation
                  End Site
                  {
                    OFFSET 1.78271 -1.18214 1.43049
                  }
                }
              }
              JOINT lIndex1
              {
                OFFSET 7.75947 0.938293 5.60832
                CHANNELS 3 Zrotation Xrotation Yrotation
                JOINT lIndex2
                {
                  OFFSET 2.54057 -0.884171 1.56538
                  CHANNELS 3 Zrotation Xrotation Yrotation
                  End Site
                  {
                    OFFSET 1.62519 -0.234802 1.16502
                  }
                }
              }
              JOINT lMid1
              {
                OFFSET 8.24714 1.18213 3.41376
                CHANNELS 3 Zrotation Xrotation Yrotation
                JOINT lMid2
                {
                  OFFSET 3.10165 -0.590103 1.0647
                  CHANNELS 3 Zrotation Xrotation Yrotation
                  End Site
                  {
                    OFFSET 2.48547 -0.328903 0.83742
                  }
                }
              }
              JOINT lRing1
              {
                OFFSET 8.82822 0.546677 1.51678
                CHANNELS 3 Zrotation Xrotation Yrotation
                JOINT lRing2
                {
                  OFFSET 2.60934 -0.819778 -0.0198488
                  CHANNELS 3 Zrotation Xrotation Yrotation
                  End Site
                  {
                    OFFSET 2.33842 -0.294052 0.168128
                  }
                }
              }
              JOINT lPinky1
              {
                OFFSET 8.27202 -0.0477905 -0.4584
                CHANNELS 3 Zrotation Xrotation Yrotation
                JOINT lPinky2
                {
                  OFFSET 1.82734 -0.647385 -0.700984
                  CHANNELS 3 Zrotation Xrotation Yrotation
                  End Site
                  {
                    OFFSET 1.69225 -0.51767 -0.607171
                  }
                }
              }
            }
          }
        }
      }
    }
  }
  JOINT rButtock
  {
    OFFSET -8.77824 4.35084 1.2192
    CHANNELS 3 Zrotation Xrotation Yrotation
    JOINT rThigh
    {
      OFFSET 0 -1.70687 -2.19456
      CHANNELS 3 Zrotation Xrotation Yrotation
      JOINT rShin
      {
        OFFSET 0 -36.8199 0.73152
        CHANNELS 3 Zrotation Xrotation Yrotation
        JOINT rFoot
        {
          OFFSET 0.73152 -45.1104 -5.12064
          CHANNELS 3 Zrotation Xrotation Yrotation
          End Site
          {
            OFFSET -1.1221 -3.69964 12.103
          }
        }
      }
    }
  }
  JOINT lButtock
  {
    OFFSET 8.77824 4.35084 1.2192
    CHANNELS 3 Zrotation Xrotation Yrotation
    JOINT lThigh
    {
      OFFSET 0 -1.70687 -2.19456
      CHANNELS 3 Zrotation Xrotation Yrotation
      JOINT lShin
      {
        OFFSET 0 -36.8199 0.73152
        CHANNELS 3 Zrotation Xrotation Yrotation
        JOINT lFoot
        {
          OFFSET -0.73152 -45.1104 -5.12064
          CHANNELS 3 Zrotation Xrotation Yrotation
          End Site
          {
            OFFSET 1.1221 -3.69964 12.103
          }
        }
      }
    }
  }
}
MOTION
Frames:	4
Frame Time:	0.00833333
-27.938299999999998 42.2291 167.373 -0.0 0.0 0.0 -0.0 -0.0 -0.0 0.0 0.0 -0.0 11.644083 12.874065 118.407543 -5.737151 16.340546 -118.901367 0.0 -0.0 -0.0 0.0 -0.0 -0.0 3.284177 -26.942061 -5.275686 10.447784 -75.716993 10.012078 17.203388 82.120008 -13.631787 -6.620507 20.63132 0.491422 -7.351256 7.062242 1.570266 20.801391 -26.689698 -8.910073 10.746993 -19.048016 -4.725035 -71.291369 44.441234 48.643667 -0.219913 0.63841 0.122732 -0.386388 1.156694 0.120074 0.000474 0.063775 0.020036 -1.076667 12.352911 1.665182 -1.149411 -2.914417 -1.065731 -149.191496 9.865673 -143.381655 158.491383 -30.376859 -166.978777 8.467522 42.460356 -31.273269 162.620859 79.379336 -165.656857 1.988113 6.365628 0.107497 7.758532 7.439094 -1.682075 29.260699 21.134921 -29.46811 -60.461659 -70.523647 -15.71111 -4.938479 13.231547 -7.608576 36.036059 51.723116 -29.832321 160.635595 8.60042 -144.049608 145.119721 0.310087 179.225753 -20.50013 -0.531465 9.128058 -12.252484 41.424931 -10.280249 -45.527428 80.336188 11.57116 -0.0 -0.0 -0.0 -0.0 0.0 -0.0 -4.450848 2.727963 -46.732744 -144.56229 -58.02121 -18.795526 -0.0 -0.0 -0.0 -0.0 0.0 -0.0 -4.143083 0.773657 -37.406087 105.009062 20.783885 -32.329178
-27.9878 42.3486 167.316 0.0 -0.0 0.0 -0.0 -0.0 -0.0 0.0 0.0 -0.0 12.048732 10.891834 106.807293 -6.919085 14.670514 -107.06844 -0.0 -0.0 0.0 -0.0 -0.0 0.0 -14.148092 43.061596 15.996421 9.515838 20.982557 -2.840336 25.88013 -82.705866 22.216479 -5.473724 17.241368 0.235405 -103.199394 36.330979 60.111426 -24.360676 -12.035607 32.065968 73.41997 -73.571281 26.563334 -59.403159 44.271915 51.067359 0.541241 -1.589941 -0.294737 -90.725997 64.042256 79.268824 -145.118942 0.185466 -179.186604 22.261305 29.144514 -5.737473 -23.628222 -36.549756 -22.72556 -163.820724 72.687957 -152.748229 155.569543 -3.943241 -161.929333 148.9131 16.425634 -159.877788 -79.584436 -69.281568 -58.339352 139.234106 67.868508 -117.161143 -88.928376 -50.831327 -37.599672 137.677568 17.860419 -100.5721 -129.2177 -75.529207 -76.343847 81.60404 44.189683 -70.702258 158.521826 -0.192208 -142.144949 152.950422 15.14821 -140.080673 0.021277 -1.724319 0.542119 -0.099758 0.540996 -0.390936 -15.078433 52.519972 -11.941391 139.476604 -12.907664 133.219515 -0.0 -0.0 -0.0 -0.0 0.0 -0.0 -5.240399 4.225182 -61.482581 137.041837 10.860678 -47.137146 -0.0 -0.0 -0.0 -0.0 0.0 -0.0 5.240399 4.225182 61.482581 3.703091 -13.718114 -66.415348
-28.0327 42.4844 167.267 0.0 -0.0 0.0 -0.0 -0.0 -0.0 0.0 0.0 -0.0 12.048732 10.891834 106.807293 -6.919085 14.670514 -107.06844 -0.0 -0.0 0.0 -0.0 -0.0 0.0 -149.850817 22.601595 154.913486 -149.502443 10.412739 166.112426 -126.961436 68.696476 117.888632 30.661124 -56.723641 19.078676 -169.319662 -7.000857 89.921973 -149.327035 4.313158 76.479453 -19.170572 24.114561 13.380841 -88.418303 53.475029 59.114213 -36.036059 51.723116 29.832321 -159.999725 10.58736 143.682307 -72.350995 72.974965 90.218005 -125.26115 -63.710934 -141.648984 -10.675082 -21.645148 -10.116939 -140.50907 -12.698946 -137.000759 157.848609 -22.65813 -165.567143 -97.132443 -73.275888 -78.082594 -171.206443 -19.712063 -172.078277 19.587649 48.570715 -7.104173 172.745809 -10.423727 -89.92934 29.413573 -32.216633 -3.075711 -159.641557 -69.973343 -102.396332 167.747019 -34.125185 -105.772174 17.486622 35.783249 -13.054497 34.051193 56.113237 -25.924906 145.118941 0.185402 179.186584 139.165867 -38.302195 172.080129 -32.017443 83.320556 -6.228541 -54.144431 79.769615 18.740849 -0.0 -0.0 -0.0 -0.0 0.0 -0.0 -5.240399 4.225182 -61.482581 137.041837 10.860678 -47.137146 -0.0 -0.0 -0.0 -0.0 0.0 -0.0 5.240399 4.225182 61.482581 3.703091 -13.718114 -66.415348
-28.078500000000002 42.6307 167.206 0.0 -0.0 0.0 -0.0 -0.0 -0.0 0.0 0.0 -0.0 7.77234 18.013368 156.222461 0.013528 19.567436 -157.458586 -0.0 -0.0 0.0 -0.0 -0.0 0.0 -153.578749 7.463415 159.321023 -164.706332 -39.4862 162.166429 172.863791 13.511429 149.151983 -179.727127 13.329089 145.201651 88.928376 -50.831327 37.599672 -89.965392 38.433375 51.150772 88.792192 -75.499035 40.049684 61.950602 -44.458689 13.924861 -8.305325 20.652672 5.560806 0.193901 0.564368 -1.0953 -145.119721 0.310087 -179.225753 22.517656 42.37087 -4.246879 -126.797849 -26.619602 -124.512652 -163.984616 71.987674 -148.674079 157.797051 -22.115459 -165.467367 -8.698466 16.805924 -20.923339 2.229585 -69.253041 38.925282 -164.742875 -31.26478 -140.940972 -1.590029 -1.575931 0.222909 -42.791234 -69.145977 17.021068 -159.641557 -69.973343 -102.396332 2.149856 27.763345 -10.404249 -89.035113 -81.393384 -59.759886 153.148401 18.89584 -135.474986 72.757246 -72.143382 89.772159 153.090362 -14.416524 -167.517519 159.761954 65.345539 151.084316 145.981063 8.464318 139.316746 -180.0 75.749642 -0.0 -180.0 73.473292 -180.0 -5.864878 -4.414665 -123.647879 61.026536 -78.157317 -36.258578 -180.0 75.749642 -0.0 -180.0 73.473292 -180.0 5.864878 -4.414665 123.647879 113.949069 37.236218 -42.319094
